<?xml version="1.0" encoding="UTF-8"?>
<svg class="css-1j8o68f" width="174.94" height="172.78" viewBox="0 0 310 306.17" xmlns="http://www.w3.org/2000/svg">
<defs>
<linearGradient id="a">
<stop stop-color="#8f5e25" offset="0"/>
<stop stop-color="#fbf4a1" offset=".5"/>
<stop stop-color="#8f5e25" offset="1"/>
</linearGradient>
</defs>
<g transform="matrix(2.9389 0 0 2.9389 -.11025 .084258)" fill="url(#a)" featurekey="rootContainer">
<path d="M104.6 41.3a52.2 52.2 0 0 0-3.5-11.2A51.1 51.1 0 0 0 44.3 1a49.6 49.6 0 0 0-5.7 1.5 49.1 49.1 0 0 0-7.9 2.7A51.6 51.6 0 0 0 6.3 77a53.7 53.7 0 0 0 4.1 6.4 57 57 0 0 0 5 5.7 51.7 51.7 0 0 0 55.3 11.5l3.3-1.4 3-1.5a50.9 50.9 0 0 0 5.8-3.8l2.7-2.1 1.2-1.1 1.1-.9 2-1.8.7-.6.6-.7 1.8-2a48.5 48.5 0 0 0 5.9-8.3 50.4 50.4 0 0 0 5.6-14.7 51.6 51.6 0 0 0 .2-20.4zM87.1 88.6l-1.2 1.1-1.2 1.1-2.6 2.1a49.5 49.5 0 0 1-5.7 3.6l-3 1.5-3.2 1.3-4.9 1.6h-.5a50.9 50.9 0 0 1-20.3.1 51.8 51.8 0 0 1-11.1-3.6A50.5 50.5 0 0 1 22.9 91a52 52 0 0 1-9.1-9.4 50.3 50.3 0 0 1-3.7-5.7c-.6-1-1.1-2-1.6-3.1s-1-2.1-1.3-3.2a50.6 50.6 0 0 1 8.6-50.8l.8-.8.5-.6.6-.6 1.2-1.1 2.4-2.1A50.5 50.5 0 0 1 62.4 3.2a48.5 48.5 0 0 1 14.7 5.2 47 47 0 0 1 8.3 5.8l2 1.8.7.6.6.7 1.8 2a49.7 49.7 0 0 1 11.3 22.9 50.8 50.8 0 0 1-.1 20.2 51.6 51.6 0 0 1-3.6 11 50.2 50.2 0 0 1-6.6 10.5l-2.1 2.4zm-44.9 13a50.1 50.1 0 0 1-13.7-5 51.8 51.8 0 0 1-6.2-4 55.2 55.2 0 0 1-5.5-4.8 49.9 49.9 0 0 1-11-53.2c.4-1.1.9-2.1 1.3-3.1l.6-1.3a50.2 50.2 0 0 0-3.4 11 51.3 51.3 0 0 0 2.4 28.5c.4 1.1.9 2.2 1.4 3.2s1 2.1 1.6 3.1a50.6 50.6 0 0 0 3.7 5.8 51.5 51.5 0 0 0 9.2 9.5 50.9 50.9 0 0 0 10.7 6.5 51 51 0 0 0 28.7 3.9 50.3 50.3 0 0 1-19.8-.1zm61.9-39.9a50.2 50.2 0 0 1-5.5 14.7 48.4 48.4 0 0 1-5.8 8.3l-1.8 2-.6.7-.7.6-1.9 1.7h.2l2.3-2.4 2.1-2.5A51.3 51.3 0 0 0 98.9 74a51.4 51.4 0 0 0 3.2-31.6 49.6 49.6 0 0 0-2.5-8.2 49.4 49.4 0 0 0-3.1-6.5 48.7 48.7 0 0 0-5.9-8.3l-1.8-2-.6-.7-.7-.6-2-1.8A49.9 49.9 0 0 0 77.3 8a49.3 49.3 0 0 0-6.5-3.2 49.8 49.8 0 0 0-8.2-2.6A52.2 52.2 0 0 0 49.9 1a50.8 50.8 0 0 1 22.7 3.2l3.2 1.3 3.1 1.6a50.1 50.1 0 0 1 5.7 3.7l2.6 2.1 1.2 1.1 1.2 1.1 2.3 2.3 2.1 2.4a50.4 50.4 0 0 1 6.5 10.5 51.6 51.6 0 0 1 3.6 11 51.1 51.1 0 0 1 0 20.3z" xmlns="http://www.w3.org/2000/svg"/>
</g>
<g transform="matrix(.52083 0 0 .52083 122 79)" fill="url(#a)" featurekey="symbolFeature-0"> 
<path d="m18.136 82.998c-4.5423 11.393-4.6788 20.969 0.60913 26.257 2.7109 2.7109 6.544 3.998 11.174 3.998a41.839 41.839 0 0 0 15.084-3.387c4.8438 11.267 11.518 18.134 18.997 18.134s14.154-6.8674 18.997-18.135a41.841 41.841 0 0 0 15.084 3.3867c4.6279 0 8.4639-1.2871 11.174-3.9971 5.2879-5.2884 5.1514-14.864 0.60913-26.257 11.268-4.8438 18.136-11.519 18.136-18.998s-6.8679-14.154-18.136-18.998c4.5423-11.393 4.6788-20.969-0.60913-26.257-5.2889-5.2884-14.865-5.1521-26.257-0.60989-4.8438-11.268-11.519-18.135-18.998-18.135-7.4791 0-14.154 6.8679-18.998 18.136-11.392-4.5424-20.968-4.6791-26.257 0.60925-5.2879 5.2884-5.1514 14.864-0.60913 26.257-11.268 4.8438-18.136 11.519-18.136 18.998s6.8679 14.154 18.136 18.998zm3.4373 23.429c-4.1207-4.1212-3.6954-12.19 0.27325-21.962a100.75 100.75 0 0 0 17.211 4.4782 100.75 100.75 0 0 0 4.4781 17.211c-9.7719 3.9679-17.84 4.3932-21.962 0.27356zm15.493-38.062q-1.7515-2.1843-3.3568-4.3643 1.6044-2.1785 3.3568-4.3643c-0.03918 1.4426-0.06634 2.8942-0.06634 4.3643s0.02716 2.9217 0.06635 4.3643zm-5.8165-7.8147a98.957 98.957 0 0 1-7.7759-13.336 98.959 98.959 0 0 1 14.928-3.9314q-0.65579 4.687-1.0121 9.6957-3.2872 3.7854-6.1401 7.5715zm6.1401 14.472q0.35229 5.0012 1.0121 9.6957a98.959 98.959 0 0 1-14.928-3.9315 98.957 98.957 0 0 1 7.7759-13.336q2.8504 3.7779 6.1401 7.5715zm10.346-27.286q3.3821-3.3821 6.8556-6.4366 4.6112-0.29233 9.408-0.29975 4.7889 0 9.4081 0.29974 3.4631 3.0506 6.8556 6.4366 3.3842 3.3842 6.4369 6.8602 0.29196 4.609 0.29944 9.4034 0 4.7865-0.29944 9.4034-3.0523 3.4652-6.4369 6.8602-3.3842 3.3842-6.8602 6.4369-4.609 0.29196-9.4034 0.29944-4.7865 0-9.4034-0.29944-3.4652-3.0524-6.8602-6.4369-3.3842-3.3842-6.4369-6.8602-0.29196-4.609-0.29944-9.4034 0-4.7865 0.29944-9.4034 3.0523-3.4652 6.4369-6.8602zm-5.8671 0.30457q0.306-2.7828 0.7124-5.4592 2.6746-0.40594 5.4591-0.71234c-1.0477 0.99225-2.0931 1.9994-3.1326 3.0389s-2.0467 2.085-3.0389 3.1327zm17.756-10.974q2.1894-1.756 4.3752-3.3602 2.1837 1.6081 4.3751 3.3602c-1.4462-0.03943-2.9013-0.06665-4.3751-0.06665s-2.9291 0.02722-4.3752 0.06665zm20.334 4.8026q2.7828 0.306 5.4594 0.7124 0.406 2.6747 0.7124 5.4592c-0.99225-1.0477-1.9995-2.0933-3.0389-3.1327s-2.0851-2.0466-3.1328-3.0389zm6.1718 38.09q-0.306 2.7828-0.7124 5.4592-2.6716 0.40558-5.4529 0.71167 1.5687-1.4859 3.1263-3.0382c1.0394-1.0394 2.0467-2.085 3.0389-3.1327zm-17.766 10.975q-2.1843 1.7515-4.3645 3.3569-2.1785-1.6044-4.3644-3.3569c1.4427 0.03925 2.8944 0.06635 4.3645 0.06635s2.9218-0.02716 4.3644-0.06635zm-20.33-4.8036q-2.7795-0.30579-5.4531-0.71167-0.406-2.6747-0.7124-5.4592c0.99225 1.0477 1.9995 2.0933 3.0389 3.1327q1.5564 1.5564 3.1265 3.0382zm-4.7524 3.4679q4.6846 0.65543 9.6906 1.0117 3.7857 3.2878 7.5728 6.1434a98.939 98.939 0 0 1-13.332 7.773 98.957 98.957 0 0 1-3.9314-14.928zm20.718 34.402c-5.8267 0-11.23-6.0043-15.334-15.718a100.87 100.87 0 0 0 15.335-9.0101 100.86 100.86 0 0 0 15.334 9.0096c-4.104 9.7145-9.5077 15.719-15.335 15.719zm16.786-19.473a98.95 98.95 0 0 1-13.332-7.7734q3.7785-2.8512 7.5732-6.1437 4.9981-0.3522 9.6901-1.0117a98.956 98.956 0 0 1-3.9316 14.929zm25.641 1.9001c-4.1212 4.1216-12.19 3.6963-21.963-0.27258a100.75 100.75 0 0 0 4.4784-17.211 100.75 100.75 0 0 0 17.211-4.4782c3.9686 9.7728 4.394 17.841 0.27326 21.962zm-15.493-46.791q1.7515 2.1843 3.3568 4.3643-1.6044 2.1785-3.3568 4.3643c0.03918-1.4426 0.06634-2.8942 0.06634-4.3643s-0.02716-2.9217-0.06635-4.3643zm-0.32365-6.6576q-0.35229-5.0012-1.0121-9.6957a98.959 98.959 0 0 1 14.928 3.9315 98.957 98.957 0 0 1-7.7759 13.336q-2.8504-3.7779-6.1401-7.5715zm0 22.044q3.2872-3.7854 6.1401-7.5715a98.957 98.957 0 0 1 7.7759 13.336 98.959 98.959 0 0 1-14.928 3.9314q0.65579-4.687 1.0121-9.6957zm33.39-11.022c0 5.8276-6.006 11.232-15.723 15.336a100.74 100.74 0 0 0-9.003-15.336 100.74 100.74 0 0 0 9.003-15.336c9.717 4.1042 15.723 9.5087 15.723 15.336zm-25.956-45.33c3.5342 0 6.4102 0.93164 8.3828 2.9033 4.1207 4.1212 3.6954 12.19-0.27325 21.962a100.75 100.75 0 0 0-17.211-4.4782 100.75 100.75 0 0 0-4.4784-17.211 37.466 37.466 0 0 1 13.58-3.1762zm-13.326 19.732q-4.6871-0.65579-9.696-1.0121-3.7842-3.286-7.569-6.1382a99.022 99.022 0 0 1 13.333-7.7783 98.949 98.949 0 0 1 3.9316 14.929zm-20.718-34.402c5.8275 0 11.232 6.0057 15.336 15.722a100.75 100.75 0 0 0-15.337 9.0036 100.76 100.76 0 0 0-15.336-9.0029c4.1042-9.7169 9.5087-15.723 15.336-15.723zm-16.786 19.474a99.029 99.029 0 0 1 13.333 7.778q-3.7766 2.8498-7.569 6.1385-5.0009 0.3522-9.6954 1.0121a98.954 98.954 0 0 1 3.9316-14.929zm-25.641-1.9003c1.9727-1.9727 4.8477-2.9033 8.3828-2.9033a37.465 37.465 0 0 1 13.58 3.1763 100.75 100.75 0 0 0-4.4783 17.211 100.75 100.75 0 0 0-17.211 4.4782c-3.9686-9.7728-4.394-17.841-0.27326-21.962zm-1.8502 27.09a100.74 100.74 0 0 0 9.003 15.336 100.74 100.74 0 0 0-9.003 15.336c-9.717-4.1042-15.723-9.5087-15.723-15.336s6.006-11.232 15.723-15.336z" xmlns="http://www.w3.org/2000/svg"/>
<path d="m64 81a17 17 0 1 0-17-17 17.019 17.019 0 0 0 17 17zm0-30a13 13 0 1 1-13 13 13.015 13.015 0 0 1 13-13z" xmlns="http://www.w3.org/2000/svg"/>
<path d="m64 72a8 8 0 1 0-8-8 8.0092 8.0092 0 0 0 8 8zm0-12a4 4 0 1 1-4 4 4.004 4.004 0 0 1 4-4z" xmlns="http://www.w3.org/2000/svg"/>
</g>
<g transform="matrix(1.004 0 0 1.004 54.177 154.31)" fill="url(#a)" featurekey="nameFeature-0">
<path d="m16.28 16.2c-0.2 0.84-0.92 2.72-1.88 5.28 5.72-0.8 11.04-0.88 14.4-0.44 2.64 0.36 2.92 0.64 3.6 1.08 0.84 0.56 0.96 0.84-0.04 0.6-0.92-0.2-2-0.4-3.16-0.6-4.36-0.68-10.12-0.44-15.12 0.16l-0.84 2.32c-0.88 2.28-2.04 5.92-3.2 9.68 1.84 0 3.64 0.04 4.88 0.08 1.4 0 2.36-0.04 3.24-0.16 0.52-0.04 0.52 0.04 0.2 0.28-0.52 0.36-1.56 0.8-8.28 0.76h-0.32c-0.8 2.64-1.56 5.24-2.16 7.48-1.56 5.64-1.44 7.72-0.88 8.24s-0.04 0.56-1.04 0c-1.04-0.52-0.68-2.76 0.68-8.32 0.56-2.44 1.36-4.88 2.24-7.4-5.92 0.08-6.72 0.76-7.04 1.36-0.2 0.48-0.48 0.16-0.4-0.24 0.12-0.4 0.44-1.28 3-1.76 1.16-0.24 2.92-0.32 4.76-0.32 1.04-2.88 2.16-5.88 3.24-9.2 0.32-1 0.64-1.88 0.92-2.64-1.84 0.24-3.56 0.56-5 0.88-5.08 1.12-6.76 2.32-6.88 2.92-0.04 0.24-0.48 0.44-0.36-0.12 0.2-1.36 2.2-2.28 5.28-3.08 2.4-0.6 4.88-1.08 7.28-1.44 1.36-3.52 2.12-4.32 2.32-5.04 0.24-0.92 0.72-1.12 0.56-0.36zm7.674 24c2.8 0 10.92-3.76 13.36-5.08 0.2-0.12 1.04-0.08 0.36 0.36-2.64 1.72-11.12 5.56-13.76 5.56-1.96 0-2.52-1.16-2.52-2s0.16-1.24 0.08-1.32c-0.12-0.12-0.36-0.08-1.64 0.6-1.16 0.68-2.44 1.2-2.84 1.2-0.56 0-0.96-0.36-0.96-0.6 0-0.76 0.48-1.8 2-2.92 1.28-1 2.08-1.2 2.76-1.2 0.92 0 1.48 1.44 1.08 1.44s-0.52-0.8-0.96-0.8c-0.4 0-1.2 0.32-2.32 1.08-1.04 0.68-1.84 1.84-1.84 2.16 0 0.08 0.04 0.12 0.16 0.12 0.36 0 1.04-0.28 2.16-0.84 1.52-0.72 2.52-1.28 3-1.28 0.16 0 0.52 0.08 0.52 0.36 0 0.32-0.4 1.04-0.4 1.96 0 0.68 0.72 1.2 1.76 1.2zm7.314-1c-0.12-0.92 0.52-2.16 1.96-3.36 1.28-1.08 2.28-1.28 2.96-1.28 0.92 0 0.84 1 0.44 0.84-0.52-0.2-1.52-0.04-2.8 0.92s-1.76 1.92-1.72 2.6c0.04 0.84 1.28 1.2 2.6 1.04 2.96-0.32 9.48-3.32 12.32-4.84 0.2-0.12 1.04-0.08 0.4 0.36-3 1.92-9.76 4.72-12.48 5.12-1.88 0.28-3.48-0.04-3.68-1.4zm15.994 1.48c0.28-1.28 0.92-3 1.48-4.08-0.28 0.32-0.72 0.84-1.48 1.64-1.36 1.44-3.64 3.2-4.36 3.2-0.56 0-0.88-0.32-0.8-1.36 0.08-0.92 0.56-2.08 0.92-2.84 0.48-1.08 1.24-2.16 1.64-2.24 0.4-0.04 0.48 0.32 0.48 0.44 0 0.32-0.96 1.12-1.52 2.2-0.44 0.88-0.72 1.76-0.8 2.08-0.12 0.64 0.04 0.92 0.24 0.92 0.64 0 2.88-1.88 3.72-2.8 1.52-1.64 2.48-2.88 3.04-2.76 0.48 0.12 0.28 0.4-0.28 1.6-0.48 1.04-1.16 2.72-1.52 4.08-0.36 1.44 0.04 1.88 0.52 1.88 2.92 0 10.6-5.72 14.24-7.68 0.2-0.08 1-0.04 0.36 0.4-3.6 2.32-11.44 8.08-14.68 8.08-1.2 0-1.64-0.88-1.2-2.76zm12.754-5.36c0.08-0.32 0.36-0.32 0.56-0.36 0.24 0 0.36 0.08 0.32 0.44-0.08 0.76-0.6 2.16-0.68 2.48-0.04 0.08 0 0.16 0.12 0.16s1.28-0.56 2.08-0.96c1.16-0.6 1.96-1.04 2.56-1.04s1.08 0.48 1.08 1.28c-0.08 1.12-0.04 1.8 0.32 1.84 0.72 0.16 3.32-0.64 5.32-1.48l6.16-2.56c0.36-0.16 0.56 0.4 0.12 0.6-1.64 0.84-3.92 1.76-6.04 2.68-2.08 0.88-4.8 1.76-6 1.52-0.84-0.16-1.04-1-0.96-2.12 0.04-0.6 0-0.84-0.12-0.92-0.2-0.12-0.64 0.04-1.4 0.44-0.64 0.32-2.84 1.44-3.2 1.44-0.24 0-0.96-0.28-0.96-0.6 0-0.2 0.52-1.56 0.72-2.84zm18.234-0.28c2.08-3.56 4.44-7.4 6.16-10.24l0.96-2.6c1.6-4.32 1.76-4.84 2.12-4.84s0.96 0.8 0.88 1.2c-0.04 0.2-1.08 2.16-2.64 5-1.64 4.92-3.72 10.76-5.52 17.2-1.96 6.96-2.12 9.88-1.76 9.96 0.32 0.08-0.12 0.72-0.56 0.48-0.6-0.32-0.28-3.56 1.68-10.84 1.24-4.6 2.6-8.92 3.88-12.72-1.44 2.44-3.04 5.12-4.6 7.6 0.6 0.28 1.04 0.56 1.28 0.76 0.24 0.24 0.04 0.52-0.28 0.36l-1.36-0.6c-4.72 7.4-5.32 8.32-6.08 8.32-0.64 0-1.32-0.92-1.32-2.2 0-3.2 2.4-7.12 5.64-7.12 0.48 0 1.04 0.12 1.52 0.28zm-5.84 8.32c0.44 0 4.04-5.32 5.48-7.76-0.24-0.04-0.48-0.08-0.72-0.08-3 0-5.16 3.72-5.16 6.32 0 0.68 0.04 1.52 0.4 1.52zm9.954-5c0.32-0.68 0.72-1.28 1.08-1.76-0.2-0.2-0.4-0.4-0.52-0.68-0.72-1.52 0.6-3.32 2.36-3.32s2.84 1.64 2.84 4.16v0.12c0.16 0 0.32 0 0.52-0.04 2-0.16 5.72-1.12 7.4-1.72 0.28-0.12 0.48 0.32 0.28 0.4-0.88 0.36-5.44 1.84-7.8 2.04-0.16 0.04-0.32 0.04-0.44 0.04-0.36 3.84-3.2 6.96-5.04 6.96-1.8 0-2.28-3.08-0.68-6.2zm0.52 5.48c1.8 0 3.96-2.72 4.32-6.24-1.08 0-2.24-0.16-3.08-0.56-0.32 0.44-0.68 0.96-0.96 1.48-1.52 2.96-1.04 5.32-0.28 5.32zm2.68-8.56c0 0.08-0.44 0.48-0.96 1.12 0.72 0.32 1.68 0.48 2.68 0.48v-0.4c0-2.08-1-3.2-2.12-3.2-1.08 0-2.08 1.04-1.52 2.24 0.08 0.2 0.2 0.32 0.32 0.48 0.6-0.64 1.12-1 1.24-1 0.24 0 0.36 0.12 0.36 0.28zm20.388-17.64c-1.12 2.56-3.92 11.08-5.44 16.8-1.44 5.32-2.28 10.04-2.36 12.72-0.04 1.12-0.12 2.96 0.88 2.96 1.64 0 7.16-3.84 13-13.64 5.96-10.04 7.8-18.6 7.64-22.52-0.08-1.12-0.36-1.68-0.92-1.68-0.28 0-0.64 0.4-0.8 0.64s-0.24 0.44-0.36 0.44c-0.28 0-0.32-0.4-0.12-0.76 0.28-0.6 0.68-0.92 1.36-0.96 1.04 0 1.72 1.16 1.76 2.16 0.4 5.28-3.2 16.16-7.68 23.2-4.36 6.88-10.56 13.68-13.88 13.68-1.4 0-1.92-1.52-1.84-3.36 0.16-3.16 1.08-8.44 2.36-13.28 1.28-4.88 4.36-13.56 5.48-16.16 0.52-1.16 1.08-0.6 0.92-0.24zm13.594 22.84c-2.08 0.16-3-1.6-2.16-3.44 0.8-1.84 2.4-2.56 3.24-2.4 0.76 0.12 1 0.76 0.68 1.68-0.48 1.24-1.96 2.12-3.4 2.6 0.16 0.56 0.68 0.84 1.4 0.8 1.84-0.16 4.4-1.44 11.64-4.6 0.52-0.24 0.64 0.28 0.32 0.4-6.08 2.68-9.52 4.8-11.72 4.96zm-1.44-3.16c-0.2 0.44-0.28 0.8-0.28 1.12 1.16-0.4 2.56-1.52 2.88-2.4 0.12-0.36 0.08-0.72-0.2-0.8-0.44-0.12-1.72 0.4-2.4 2.08zm11.754 3.92c-0.88-0.12-1.48-1.04-0.52-3.04 0.4-0.88 0.68-1.4 0.68-1.6 0-0.16-0.12-0.28-0.96-0.6-1.08-0.4-1.24-1.44-1.04-2.24 0.36-1.44 1.52-1.88 2.12-1.76 0.32 0.08 0.76 0.52 0.72 0.84-0.12 1.04-0.76 1.72-1.84 2.32 0.08 0.08 0.2 0.16 0.36 0.2 1.48 0.6 1.68 0.72 1.68 1.08 0 0.32-0.44 0.96-0.96 2.08-0.6 1.24-0.64 1.76 0.04 1.84 2.24 0.28 7.96-1.52 12.16-5.12 0.4-0.36 0.88-0.08 0.52 0.24-4.24 4.04-10.92 6.04-12.96 5.76zm-1.04-7.28c-0.08 0.24-0.12 0.48-0.04 0.72 1.16-0.72 1.44-1.32 1.48-1.88 0-0.08 0-0.12-0.08-0.16-0.4-0.12-1.16 0.68-1.36 1.32zm8.554 22.6c-1.08 0-2.52-0.72-2.52-2.76 0-2.96 1.92-7.04 6.56-11.76 1.36-1.4 3-2.52 4.68-3.48-0.08-2.08-0.52-3.24-1.56-3.24-0.6 0-1.2 0.52-1.8 0.96-0.8 0.68-1.68 1.44-2.52 1.44-1.48 0-1.48-2.52 0.64-3.52 1.64-0.76 2.8-0.04 3.16 0.44 0.16 0 0.36-0.04 0.56-0.04 1.2 0 2.12 1.2 2.28 3.56 4.48-2.28 9.28-3.2 10.76-3.2 0.6 0 0.76 0.68 0.2 0.68-1.6 0-6.36 0.8-10.92 3.36v0.04c0 3.64-1.12 8.68-3.08 12.08-1.84 3.28-4.32 5.44-6.44 5.44zm5.68-6c1.96-3.4 3.08-8.32 3.08-10.96v-0.16c-1.44 0.84-2.8 1.88-4.04 3.16-4.84 4.88-6.44 9.04-6.44 11.32 0 1.16 0.48 1.88 1.4 1.88 1.48 0 3.96-1.64 6-5.24zm-0.84-14.92c0.36-0.32 0.76-0.64 1.24-0.84-0.6-0.32-1.48-0.52-2.44 0.12-1.48 0.96-1.4 2.12-0.8 2.12 0.44 0 1.16-0.72 2-1.4zm16.914 4.56c2.8 0 10.92-3.76 13.36-5.08 0.2-0.12 1.04-0.08 0.36 0.36-2.64 1.72-11.12 5.56-13.76 5.56-1.96 0-2.52-1.16-2.52-2s0.16-1.24 0.08-1.32c-0.12-0.12-0.36-0.08-1.64 0.6-1.16 0.68-2.44 1.2-2.84 1.2-0.56 0-0.96-0.36-0.96-0.6 0-0.76 0.48-1.8 2-2.92 1.28-1 2.08-1.2 2.76-1.2 0.92 0 1.48 1.44 1.08 1.44s-0.52-0.8-0.96-0.8c-0.4 0-1.2 0.32-2.32 1.08-1.04 0.68-1.84 1.84-1.84 2.16 0 0.08 0.04 0.12 0.16 0.12 0.36 0 1.04-0.28 2.16-0.84 1.52-0.72 2.52-1.28 3-1.28 0.16 0 0.52 0.08 0.52 0.36 0 0.32-0.4 1.04-0.4 1.96 0 0.68 0.72 1.2 1.76 1.2zm12.394 1.04c-0.88-0.12-1.48-1.04-0.52-3.04 0.4-0.88 0.68-1.4 0.68-1.6 0-0.16-0.12-0.28-0.96-0.6-1.08-0.4-1.24-1.44-1.04-2.24 0.36-1.44 1.52-1.88 2.12-1.76 0.32 0.08 0.76 0.52 0.72 0.84-0.12 1.04-0.76 1.72-1.84 2.32 0.08 0.08 0.2 0.16 0.36 0.2 1.48 0.6 1.68 0.72 1.68 1.08 0 0.32-0.44 0.96-0.96 2.08-0.6 1.24-0.64 1.76 0.04 1.84 2.24 0.28 7.96-1.52 12.16-5.12 0.4-0.36 0.88-0.08 0.52 0.24-4.24 4.04-10.92 6.04-12.96 5.76zm-1.04-7.28c-0.08 0.24-0.12 0.48-0.04 0.72 1.16-0.72 1.44-1.32 1.48-1.88 0-0.08 0-0.12-0.08-0.16-0.4-0.12-1.16 0.68-1.36 1.32zm15.554 6.24c2.8 0 10.92-3.76 13.36-5.08 0.2-0.12 1.04-0.08 0.36 0.36-2.64 1.72-11.12 5.56-13.76 5.56-1.96 0-2.52-1.16-2.52-2s0.16-1.24 0.08-1.32c-0.12-0.12-0.36-0.08-1.64 0.6-1.16 0.68-2.44 1.2-2.84 1.2-0.56 0-0.96-0.36-0.96-0.6 0-0.76 0.48-1.8 2-2.92 1.28-1 2.08-1.2 2.76-1.2 0.92 0 1.48 1.44 1.08 1.44s-0.52-0.8-0.96-0.8c-0.4 0-1.2 0.32-2.32 1.08-1.04 0.68-1.84 1.84-1.84 2.16 0 0.08 0.04 0.12 0.16 0.12 0.36 0 1.04-0.28 2.16-0.84 1.52-0.72 2.52-1.28 3-1.28 0.16 0 0.52 0.08 0.52 0.36 0 0.32-0.4 1.04-0.4 1.96 0 0.68 0.72 1.2 1.76 1.2z"/>
</g>
<g transform="matrix(.48808 0 0 .48808 74.758 218.23)" fill="url(#a)" featurekey="sloganFeature-0">
<path d="m0.7 20.04c-0.2 0.02-0.28-0.68-0.12-0.72 1.16-0.3 2.06-0.48 2.06-1.96v-8.88c0-1.28-0.82-1.62-1.68-1.84-0.16-0.04-0.06-0.7 0.1-0.68 1.46 0.16 3.98 0.12 5.2 0.12 1.82 0 3.14-0.08 4.78-0.12 0.48 0 0.48 0.32 0.38 0.78l-0.48 1.9c-0.06 0.28-0.56 0.28-0.64 0-0.3-0.98-0.9-1.54-3.4-1.54-1.4 0-1.86 0.36-1.86 1.4v3.46c0 0.52 0.26 0.62 0.66 0.62h0.44c1.62 0 3.02-0.16 3.84-0.9 0.2-0.18 0.64-0.14 0.46 0.26l-1.14 2.52c-0.16 0.36-0.46 0.32-0.68 0.02-0.46-0.64-1.48-0.9-2.64-0.9h-0.28c-0.4 0-0.66 0.1-0.66 0.62v3.16c0 1.48 0.92 1.6 2.56 1.96 0.18 0.04 0.08 0.74-0.12 0.72-1.44-0.1-2.48-0.12-3.64-0.12s-2.2 0.02-3.14 0.12zm30.592-0.54c0.16 0 0.12 0.54 0 0.58-1.26 0.42-3 0.36-4.2-1.18l-3.08-3.96c-0.86-1.12-1.88-1.28-3.28-1.3v3.88c0 1.4 0.96 1.64 2.24 1.8 0.14 0.02 0.04 0.68-0.12 0.68h-6.06c-0.16 0-0.28-0.66-0.12-0.68 1.02-0.14 1.66-0.54 1.66-1.8v-8.92c0-1.32-0.7-1.7-1.66-1.96-0.16-0.04-0.06-0.7 0.12-0.68 0.78 0.1 1.66 0.12 2.3 0.12 1.48 0 2.86-0.12 3.82-0.12 3.02 0 5.04 1.24 5.04 3.7 0 2.32-1.88 3.46-3.56 3.56v0.1c0.8 0 1.38 0.34 2.26 1.44l2.98 3.74c0.62 0.78 1.22 1 1.66 1zm-9.98-6.78c2.98 0 4.12-0.52 4.12-2.52 0-2.14-1.36-3.2-3.14-3.2-1.18 0-1.56 0.48-1.56 1.6v4.12h0.58zm22.113 7.6c-4.16 0-7.22-3.08-7.22-7.24 0-4.04 2.88-7.4 7.26-7.4 4.18 0 7.22 3.06 7.22 7.22 0 4.06-2.86 7.42-7.26 7.42zm0.78-1.36c1.76 0 4.1-1.16 4.1-4.94 0-4.04-2.74-6.98-5.62-6.98-1.76 0-4.08 1.16-4.08 4.92 0 4.08 2.74 7 5.6 7zm25.053 1.24c-0.34 0-0.52-0.14-0.74-0.38l-9.52-9.96v7.6c0 1.36 0.8 1.58 1.94 1.86 0.16 0.04 0.08 0.68-0.12 0.68h-4.74c-0.16 0-0.28-0.62-0.1-0.68 0.84-0.28 1.64-0.44 1.64-1.86v-7.76c0-1.42-0.22-2.1-0.74-2.8-0.18-0.24-0.36-0.4-0.36-0.46 0-0.18 0.12-0.44 0.4-0.44h1.48c0.2 0 0.34 0.02 0.48 0.18l9.32 9.86v-7.52c0-1.42-0.9-1.58-1.94-1.84-0.16-0.04-0.08-0.68 0.12-0.68h4.74c0.16 0 0.26 0.64 0.1 0.68-0.88 0.26-1.64 0.42-1.64 1.84v7.78c0 1.32 0.04 2.78 0.24 3.52 0.08 0.3-0.24 0.38-0.56 0.38zm10.032-0.2c-0.18 0-0.3-0.64-0.14-0.66 1.38-0.18 2.3-0.46 2.3-1.54v-9.86c0-0.5-0.18-0.66-0.66-0.66h-0.54c-1.9 0-2.96 0.44-3.36 1.3-0.18 0.4-0.86 0.34-0.78 0 0.18-0.72 0.34-1.34 0.46-2.4 0.04-0.38 0.26-0.36 0.62-0.32 0.92 0.1 1.76 0.14 5.56 0.14s5.14-0.04 6.1-0.14c0.36-0.04 0.7-0.06 0.58 0.32-0.3 0.94-0.5 1.68-0.62 2.4-0.06 0.34-0.6 0.36-0.68 0-0.2-0.84-1.08-1.3-2.8-1.3h-0.62c-0.48 0-0.78 0.16-0.78 0.66v9.86c0 1.08 0.92 1.36 2.3 1.54 0.16 0.02 0.04 0.66-0.14 0.66h-6.8zm15.812-4.16c-0.36 0.06-0.48-1.2-0.12-1.26l5.64-0.92c0.36-0.06 0.48 1.2 0.12 1.26zm11.273 4.2c-0.2 0.02-0.28-0.68-0.12-0.72 1.16-0.3 2.06-0.48 2.06-1.96v-8.88c0-1.28-0.82-1.62-1.68-1.84-0.16-0.04-0.06-0.7 0.1-0.68 1.46 0.16 3.98 0.12 5.2 0.12 1.82 0 3.14-0.08 4.78-0.12 0.48 0 0.48 0.32 0.38 0.78l-0.48 1.9c-0.06 0.28-0.56 0.28-0.64 0-0.3-0.98-0.9-1.54-3.4-1.54-1.4 0-1.86 0.36-1.86 1.4v3.26c0 0.52 0.26 0.62 0.66 0.62h0.44c1.62 0 3.02-0.16 3.84-0.9 0.2-0.18 0.64-0.14 0.46 0.26l-1.14 2.52c-0.16 0.36-0.46 0.32-0.68 0.02-0.46-0.64-1.48-0.9-2.64-0.9h-0.28c-0.4 0-0.66 0.1-0.66 0.62v3.36c0 1.14 0.48 1.56 2.14 1.56 3.02 0 4.22-1.38 4.7-2.14 0.14-0.22 0.68-0.12 0.68 0.22 0 1.02-0.86 3.04-2.12 3.04-1.12-0.06-2.22-0.12-3.9-0.12-1.84 0-4.02-0.06-5.84 0.12zm30.133 0.16c-0.34 0-0.52-0.14-0.74-0.38l-9.52-9.96v7.6c0 1.36 0.8 1.58 1.94 1.86 0.16 0.04 0.08 0.68-0.12 0.68h-4.74c-0.16 0-0.28-0.62-0.1-0.68 0.84-0.28 1.64-0.44 1.64-1.86v-7.76c0-1.42-0.22-2.1-0.74-2.8-0.18-0.24-0.36-0.4-0.36-0.46 0-0.18 0.12-0.44 0.4-0.44h1.48c0.2 0 0.34 0.02 0.48 0.18l9.32 9.86v-7.52c0-1.42-0.9-1.58-1.94-1.84-0.16-0.04-0.08-0.68 0.12-0.68h4.74c0.16 0 0.26 0.64 0.1 0.68-0.88 0.26-1.64 0.42-1.64 1.84v7.78c0 1.32 0.04 2.78 0.24 3.52 0.08 0.3-0.24 0.38-0.56 0.38zm6.9525-0.16c-0.2 0.02-0.28-0.68-0.12-0.72 1.16-0.3 2.06-0.48 2.06-1.96v-8.88c0-1.28-0.82-1.62-1.68-1.84-0.16-0.04-0.06-0.7 0.1-0.68 0.82 0.1 1.66 0.12 2.5 0.12 1.56 0 2.96-0.12 3.98-0.12 4.84 0 7.46 2.88 7.46 6.74 0 3.84-2.62 7.34-7.48 7.34-0.96 0-2.2-0.12-3.68-0.12-1.24 0-2.22 0.02-3.14 0.12zm7.02-1.06c3.26 0 4.88-1.76 4.88-5.14 0-3.82-2.08-6.82-5.68-6.82-1.42 0-1.88 0.44-1.88 1.46v8.88c0 1.08 0.74 1.62 2.68 1.62zm19.705 1.06c-0.2 0.02-0.28-0.68-0.12-0.72 1.16-0.3 2.06-0.48 2.06-1.96v-8.88c0-1.28-0.82-1.62-1.68-1.84-0.16-0.04-0.06-0.7 0.1-0.68 0.82 0.1 1.66 0.12 2.5 0.12 1.56 0 2.96-0.12 3.98-0.12 4.84 0 7.46 2.88 7.46 6.74 0 3.84-2.62 7.34-7.48 7.34-0.96 0-2.2-0.12-3.68-0.12-1.24 0-2.22 0.02-3.14 0.12zm7.02-1.06c3.26 0 4.88-1.76 4.88-5.14 0-3.82-2.08-6.82-5.68-6.82-1.42 0-1.88 0.44-1.88 1.46v8.88c0 1.08 0.74 1.62 2.68 1.62zm12.392 1.06c-0.2 0.02-0.28-0.68-0.12-0.72 1.16-0.3 2.06-0.48 2.06-1.96v-8.88c0-1.28-0.82-1.62-1.68-1.84-0.16-0.04-0.06-0.7 0.1-0.68 1.46 0.16 3.98 0.12 5.2 0.12 1.82 0 3.14-0.08 4.78-0.12 0.48 0 0.48 0.32 0.38 0.78l-0.48 1.9c-0.06 0.28-0.56 0.28-0.64 0-0.3-0.98-0.9-1.54-3.4-1.54-1.4 0-1.86 0.36-1.86 1.4v3.26c0 0.52 0.26 0.62 0.66 0.62h0.44c1.62 0 3.02-0.16 3.84-0.9 0.2-0.18 0.64-0.14 0.46 0.26l-1.14 2.52c-0.16 0.36-0.46 0.32-0.68 0.02-0.46-0.64-1.48-0.9-2.64-0.9h-0.28c-0.4 0-0.66 0.1-0.66 0.62v3.36c0 1.14 0.48 1.56 2.14 1.56 3.02 0 4.22-1.38 4.7-2.14 0.14-0.22 0.68-0.12 0.68 0.22 0 1.02-0.86 3.04-2.12 3.04-1.12-0.06-2.22-0.12-3.9-0.12-1.84 0-4.02-0.06-5.84 0.12zm31.573-14.04c0.22 0 0.3 0.64 0.04 0.68-0.8 0.12-1.32 0.44-2.04 2.12l-3.38 7.86c-0.7 1.62-1.02 2.54-1.02 3.34 0 0.12-1.38 0.44-1.44 0.3l-4.86-11.48c-0.72-1.72-1.26-2.02-2.04-2.14-0.26-0.04-0.2-0.68 0.06-0.68h5.26c0.26 0 0.3 0.64 0.06 0.68-0.74 0.12-1.48 0.44-0.78 2.12l3.38 8.12 3.38-8.12c0.72-1.72-0.08-1.98-1-2.12-0.26-0.04-0.2-0.68 0.06-0.68h4.32zm4.9125 14.04c-0.2 0.02-0.28-0.68-0.12-0.72 1.16-0.3 2.06-0.48 2.06-1.96v-8.88c0-1.28-0.82-1.62-1.68-1.84-0.16-0.04-0.06-0.7 0.1-0.68 1.46 0.16 3.98 0.12 5.2 0.12 1.82 0 3.14-0.08 4.78-0.12 0.48 0 0.48 0.32 0.38 0.78l-0.48 1.9c-0.06 0.28-0.56 0.28-0.64 0-0.3-0.98-0.9-1.54-3.4-1.54-1.4 0-1.86 0.36-1.86 1.4v3.26c0 0.52 0.26 0.62 0.66 0.62h0.44c1.62 0 3.02-0.16 3.84-0.9 0.2-0.18 0.64-0.14 0.46 0.26l-1.14 2.52c-0.16 0.36-0.46 0.32-0.68 0.02-0.46-0.64-1.48-0.9-2.64-0.9h-0.28c-0.4 0-0.66 0.1-0.66 0.62v3.36c0 1.14 0.48 1.56 2.14 1.56 3.02 0 4.22-1.38 4.7-2.14 0.14-0.22 0.68-0.12 0.68 0.22 0 1.02-0.86 3.04-2.12 3.04-1.12-0.06-2.22-0.12-3.9-0.12-1.84 0-4.02-0.06-5.84 0.12zm16.773 0c-0.2 0.02-0.28-0.68-0.12-0.72 1.16-0.3 2.06-0.48 2.06-1.96v-8.88c0-1.4-0.82-1.68-1.68-1.8-0.16-0.02-0.04-0.68 0.1-0.68h5.52c0.14 0 0.24 0.66 0.1 0.68-0.84 0.1-1.64 0.4-1.64 1.8v8.88c0 1.14 0.48 1.56 2.14 1.56 3.02 0 4.22-1.38 4.7-2.14 0.14-0.22 0.68-0.12 0.68 0.22 0 1.02-0.86 3.04-2.12 3.04-1.12-0.06-2.22-0.12-3.9-0.12-1.84 0-4.02-0.06-5.84 0.12zm24.192 0.28c-4.16 0-7.22-3.08-7.22-7.24 0-4.04 2.88-7.4 7.26-7.4 4.18 0 7.22 3.06 7.22 7.22 0 4.06-2.86 7.42-7.26 7.42zm0.78-1.36c1.76 0 4.1-1.16 4.1-4.94 0-4.04-2.74-6.98-5.62-6.98-1.76 0-4.08 1.16-4.08 4.92 0 4.08 2.74 7 5.6 7zm23.692-8.72c0 3.56-3.34 5.06-7.76 4.4v2.88c0 1.4 0.96 1.64 2.24 1.8 0.14 0.02 0.04 0.68-0.12 0.68h-6.06c-0.16 0-0.28-0.66-0.12-0.68 1.02-0.14 1.66-0.54 1.66-1.8v-8.92c0-1.32-0.7-1.7-1.66-1.96-0.16-0.04-0.06-0.7 0.12-0.68 0.78 0.1 1.66 0.12 2.3 0.12 1.48 0 2.72-0.12 3.74-0.12 3.1 0 5.66 1.14 5.66 4.28zm-6.16-3.24c-1.26 0-1.6 0.44-1.6 1.6v5.06c3.4 0.48 5.18-0.34 5.18-2.96 0-2.38-1.52-3.7-3.58-3.7zm11.272 13.04c-0.2 0.02-0.28-0.68-0.12-0.72 1.16-0.3 2.06-0.48 2.06-1.96v-8.88c0-1.28-0.82-1.62-1.68-1.84-0.16-0.04-0.06-0.7 0.1-0.68 1.46 0.16 3.98 0.12 5.2 0.12 1.82 0 3.14-0.08 4.78-0.12 0.48 0 0.48 0.32 0.38 0.78l-0.48 1.9c-0.06 0.28-0.56 0.28-0.64 0-0.3-0.98-0.9-1.54-3.4-1.54-1.4 0-1.86 0.36-1.86 1.4v3.26c0 0.52 0.26 0.62 0.66 0.62h0.44c1.62 0 3.02-0.16 3.84-0.9 0.2-0.18 0.64-0.14 0.46 0.26l-1.14 2.52c-0.16 0.36-0.46 0.32-0.68 0.02-0.46-0.64-1.48-0.9-2.64-0.9h-0.28c-0.4 0-0.66 0.1-0.66 0.62v3.36c0 1.14 0.48 1.56 2.14 1.56 3.02 0 4.22-1.38 4.7-2.14 0.14-0.22 0.68-0.12 0.68 0.22 0 1.02-0.86 3.04-2.12 3.04-1.12-0.06-2.22-0.12-3.9-0.12-1.84 0-4.02-0.06-5.84 0.12zm31.572-0.54c0.16 0 0.12 0.54 0 0.58-1.26 0.42-3 0.36-4.2-1.18l-3.08-3.96c-0.86-1.12-1.88-1.28-3.28-1.3v3.88c0 1.4 0.96 1.64 2.24 1.8 0.14 0.02 0.04 0.68-0.12 0.68h-6.06c-0.16 0-0.28-0.66-0.12-0.68 1.02-0.14 1.66-0.54 1.66-1.8v-8.92c0-1.32-0.7-1.7-1.66-1.96-0.16-0.04-0.06-0.7 0.12-0.68 0.78 0.1 1.66 0.12 2.3 0.12 1.48 0 2.86-0.12 3.82-0.12 3.02 0 5.04 1.24 5.04 3.7 0 2.32-1.88 3.46-3.56 3.56v0.1c0.8 0 1.38 0.34 2.26 1.44l2.98 3.74c0.62 0.78 1.22 1 1.66 1zm-9.98-6.78c2.98 0 4.12-0.52 4.12-2.52 0-2.14-1.36-3.2-3.14-3.2-1.18 0-1.56 0.48-1.56 1.6v4.12h0.58z"/>
</g>
</svg>
